<?xml version="1.0" encoding="UTF-8" ?>
<!DOCTYPE svg PUBLIC "-//W3C//DTD SVG 1.1//EN" "http://www.w3.org/Graphics/SVG/1.1/DTD/svg11.dtd">
<svg width="436pt" height="264pt" viewBox="0 0 436 264" version="1.1" xmlns="http://www.w3.org/2000/svg">
<g id="#fa82a0ff">
<path fill="#fa82a0" opacity="1.00" d=" M 49.76 0.00 L 386.08 0.00 C 398.95 0.70 411.71 5.95 420.72 15.29 C 429.88 24.10 435.04 36.51 436.00 49.09 L 436.00 214.58 C 435.17 227.28 429.94 239.83 420.72 248.72 C 411.83 257.93 399.30 263.15 386.62 264.00 L 49.92 264.00 C 37.04 263.33 24.29 258.04 15.28 248.71 C 6.00 239.75 0.75 227.11 0.00 214.31 L 0.00 49.45 C 0.83 36.73 6.07 24.16 15.30 15.26 C 24.27 5.98 36.96 0.76 49.76 0.00 M 62.02 79.04 C 59.39 81.60 58.52 85.48 59.06 89.03 C 60.37 99.67 61.68 110.31 63.03 120.94 C 59.54 118.32 54.68 117.19 50.86 119.83 C 45.85 122.56 45.71 129.18 47.60 133.92 C 42.49 135.00 38.12 139.65 39.07 145.12 C 39.44 150.30 43.91 153.42 46.93 157.10 C 47.90 164.04 49.61 171.25 54.58 176.51 C 66.20 189.52 87.00 191.33 101.71 182.73 C 110.61 177.25 114.96 166.82 116.52 156.89 C 117.06 151.49 117.76 145.63 115.40 140.55 C 113.49 136.68 108.90 135.94 105.33 134.36 C 108.40 119.20 111.50 104.05 114.57 88.89 C 115.43 85.42 114.57 81.56 112.02 79.01 C 108.04 74.61 100.36 75.17 96.62 79.57 C 94.61 82.06 94.06 85.32 93.11 88.29 C 90.66 96.39 88.48 104.57 85.87 112.62 C 83.77 104.82 82.09 96.91 80.22 89.05 C 79.38 85.72 78.93 82.03 76.48 79.42 C 72.88 75.34 65.82 75.14 62.02 79.04 M 141.27 106.33 C 136.84 112.60 136.69 122.04 142.21 127.71 C 147.45 133.30 155.49 133.99 162.21 136.82 C 165.58 138.15 166.67 142.41 165.43 145.58 C 164.06 149.31 159.74 150.81 156.06 150.39 C 151.46 150.18 147.96 146.90 144.87 143.84 C 142.07 146.76 138.69 149.22 136.66 152.78 C 142.22 158.51 149.91 162.46 158.04 161.99 C 165.45 161.98 173.06 158.37 176.72 151.74 C 180.39 145.13 180.08 135.92 174.60 130.37 C 170.10 125.85 163.72 124.25 157.82 122.42 C 155.10 121.51 151.63 120.15 151.29 116.86 C 150.64 112.98 154.10 109.34 157.99 109.63 C 161.77 109.27 164.35 112.31 166.75 114.71 C 170.04 112.54 173.54 110.69 176.60 108.19 C 170.05 95.24 149.25 94.51 141.27 106.33 M 245.53 102.63 C 239.99 106.46 237.02 113.26 237.14 119.91 C 237.11 133.53 236.88 147.16 237.22 160.78 C 241.23 161.04 245.25 160.97 249.27 160.90 C 250.10 154.30 249.15 147.63 249.80 141.03 C 250.60 135.63 256.13 133.18 260.98 132.62 C 261.19 128.90 261.17 125.18 261.04 121.47 C 256.92 121.20 253.03 122.72 249.66 124.97 C 249.50 121.00 249.16 116.30 252.24 113.26 C 254.53 110.71 258.10 110.35 261.28 109.84 C 261.43 106.16 261.42 102.47 261.26 98.79 C 255.83 98.71 250.08 99.40 245.53 102.63 M 350.03 104.17 C 349.55 115.77 349.89 127.39 349.89 139.00 C 349.81 143.70 350.54 148.66 353.47 152.50 C 358.06 158.81 366.24 161.62 373.84 160.90 C 374.06 157.28 374.07 153.65 373.88 150.02 C 370.37 149.52 366.39 148.90 364.25 145.72 C 360.85 140.88 362.48 134.60 362.18 129.09 C 365.62 131.21 369.45 133.08 373.62 132.66 C 373.72 128.97 373.73 125.28 373.65 121.59 C 370.26 120.62 366.41 119.82 364.21 116.77 C 361.32 113.23 362.31 108.39 361.96 104.18 C 357.98 103.99 354.00 104.00 350.03 104.17 M 201.40 117.67 C 189.15 120.10 180.69 134.02 184.79 145.97 C 188.47 159.07 204.83 165.59 216.93 160.09 C 224.22 157.00 229.91 149.99 230.87 142.05 C 231.91 132.23 225.60 122.36 216.54 118.68 C 211.75 116.77 206.40 116.62 201.40 117.67 M 285.19 117.22 C 275.39 118.28 266.67 126.12 265.15 135.95 C 263.47 144.44 267.73 153.42 274.96 158.00 C 283.11 163.52 294.63 163.31 302.55 157.47 C 308.99 152.94 312.74 144.84 311.70 137.00 C 310.44 124.45 297.44 115.27 285.19 117.22 M 330.79 122.07 C 330.71 121.11 330.55 119.21 330.47 118.26 C 326.60 117.98 322.71 118.07 318.83 118.09 C 318.11 122.35 318.61 126.67 318.50 130.96 C 318.66 140.93 318.16 150.93 318.72 160.88 C 322.71 160.97 326.71 161.05 330.70 160.77 C 331.38 153.23 330.14 145.59 331.31 138.10 C 332.32 132.86 337.73 130.69 342.48 130.23 C 342.24 125.99 343.71 121.09 341.71 117.26 C 337.51 117.03 333.67 119.17 330.79 122.07 M 385.33 146.39 C 379.94 148.53 379.05 156.87 383.97 160.01 C 388.77 163.70 396.81 160.20 397.00 154.06 C 397.54 148.14 390.53 143.73 385.33 146.39 Z" />
<path fill="#fa82a0" opacity="1.00" d=" M 63.53 88.81 C 62.90 85.73 64.05 82.03 67.14 80.76 C 70.32 79.48 73.96 81.87 74.61 85.11 C 77.72 97.28 80.33 109.57 83.47 121.73 C 83.76 123.42 85.55 123.93 86.98 123.31 C 88.40 121.26 88.77 118.71 89.52 116.37 C 92.61 105.81 95.64 95.22 98.88 84.70 C 100.02 80.34 106.55 78.93 109.23 82.65 C 111.36 85.04 110.40 88.37 109.84 91.14 C 106.82 105.14 104.31 119.26 101.05 133.18 L 100.36 133.54 C 93.54 132.43 86.97 129.91 80.06 129.38 C 76.75 129.08 73.90 130.98 71.46 132.98 C 69.83 130.98 68.42 128.72 68.18 126.09 C 66.53 113.68 65.11 101.23 63.53 88.81 Z" />
<path fill="#fa82a0" opacity="1.00" d=" M 51.04 126.95 C 51.49 123.38 56.41 121.37 59.14 123.85 C 62.06 126.38 63.80 129.93 66.09 132.99 C 67.44 135.17 69.60 137.15 69.53 139.91 C 69.47 142.56 70.46 145.00 71.83 147.21 C 69.77 149.55 66.01 150.96 63.41 148.61 C 60.30 145.29 58.16 141.20 55.46 137.56 C 53.39 134.36 50.35 131.08 51.04 126.95 Z" />
<path fill="#fa82a0" opacity="1.00" d=" M 204.41 128.59 C 211.85 126.25 219.72 133.31 218.36 140.95 C 218.00 147.95 210.15 152.49 203.75 150.19 C 197.20 148.41 194.11 140.11 197.30 134.27 C 198.68 131.45 201.38 129.37 204.41 128.59 Z" />
<path fill="#fa82a0" opacity="1.00" d=" M 285.45 128.56 C 293.31 126.17 301.43 134.04 299.28 141.98 C 298.04 150.54 286.11 153.60 280.33 147.60 C 274.41 141.92 277.22 130.30 285.45 128.56 Z" />
<path fill="#fa82a0" opacity="1.00" d=" M 75.18 136.24 C 77.20 133.03 81.50 133.80 84.62 134.52 C 92.35 136.46 100.16 138.09 107.89 140.02 C 111.39 140.79 112.60 144.76 112.70 147.92 C 112.75 156.85 110.84 166.17 105.43 173.46 C 101.36 179.07 94.65 181.94 87.98 182.98 C 78.02 185.04 67.07 182.37 59.62 175.33 C 55.79 171.87 53.67 167.02 52.16 162.18 C 55.42 165.42 59.65 168.80 64.58 167.43 C 70.82 166.06 73.85 158.88 71.75 153.11 C 73.31 152.00 74.63 149.44 76.86 150.23 C 79.98 151.13 83.05 152.17 86.25 152.75 C 81.48 156.25 78.84 162.10 79.19 167.98 C 79.77 170.10 83.47 170.00 83.39 167.62 C 84.09 163.61 84.94 158.98 88.80 156.75 C 92.07 154.37 96.23 155.59 99.90 154.87 C 100.72 153.66 100.68 152.53 99.77 151.46 C 92.47 149.01 84.51 148.74 77.44 145.58 C 73.69 144.12 73.15 139.31 75.18 136.24 Z" />
<path fill="#fa82a0" opacity="1.00" d=" M 46.27 139.24 C 48.03 138.30 50.61 138.42 51.82 140.18 C 54.67 143.74 56.66 147.92 59.71 151.33 C 61.57 153.53 64.58 153.78 67.09 154.79 C 70.34 159.07 64.78 165.18 60.15 163.07 C 57.18 161.07 54.89 158.25 52.27 155.83 C 49.67 153.10 46.65 150.71 44.46 147.62 C 42.63 144.93 43.25 140.77 46.27 139.24 Z" />
</g>
<g id="#fdfdfdff">
<path fill="#fdfdfd" opacity="1.00" d=" M 62.02 79.04 C 65.82 75.14 72.88 75.34 76.48 79.42 C 78.93 82.03 79.38 85.72 80.22 89.05 C 82.09 96.91 83.77 104.82 85.87 112.62 C 88.48 104.57 90.66 96.39 93.11 88.29 C 94.06 85.32 94.61 82.06 96.62 79.57 C 100.36 75.17 108.04 74.61 112.02 79.01 C 114.57 81.56 115.43 85.42 114.57 88.89 C 111.50 104.05 108.40 119.20 105.33 134.36 C 108.90 135.94 113.49 136.68 115.40 140.55 C 117.76 145.63 117.06 151.49 116.52 156.89 C 114.96 166.82 110.61 177.25 101.71 182.73 C 87.00 191.33 66.20 189.52 54.58 176.51 C 49.61 171.25 47.90 164.04 46.93 157.10 C 43.91 153.42 39.44 150.30 39.07 145.12 C 38.12 139.65 42.49 135.00 47.60 133.92 C 45.71 129.18 45.85 122.56 50.86 119.83 C 54.68 117.19 59.54 118.32 63.03 120.94 C 61.68 110.31 60.37 99.67 59.06 89.03 C 58.52 85.48 59.39 81.60 62.02 79.04 M 63.53 88.81 C 65.11 101.23 66.53 113.68 68.18 126.09 C 68.42 128.72 69.83 130.98 71.46 132.98 C 73.90 130.98 76.75 129.08 80.06 129.38 C 86.97 129.91 93.54 132.43 100.36 133.54 L 101.05 133.18 C 104.31 119.26 106.82 105.14 109.84 91.14 C 110.40 88.37 111.36 85.04 109.23 82.65 C 106.55 78.93 100.02 80.34 98.88 84.70 C 95.64 95.22 92.61 105.81 89.52 116.37 C 88.77 118.71 88.40 121.26 86.98 123.31 C 85.55 123.93 83.76 123.42 83.47 121.73 C 80.33 109.57 77.72 97.28 74.61 85.11 C 73.96 81.87 70.32 79.48 67.14 80.76 C 64.05 82.03 62.90 85.73 63.53 88.81 M 51.04 126.95 C 50.35 131.08 53.39 134.36 55.46 137.56 C 58.16 141.20 60.30 145.29 63.41 148.61 C 66.01 150.96 69.77 149.55 71.83 147.21 C 70.46 145.00 69.47 142.56 69.53 139.91 C 69.60 137.15 67.44 135.17 66.09 132.99 C 63.80 129.93 62.06 126.38 59.14 123.85 C 56.41 121.37 51.49 123.38 51.04 126.95 M 75.18 136.24 C 73.15 139.31 73.69 144.12 77.44 145.58 C 84.51 148.74 92.47 149.01 99.77 151.46 C 100.68 152.53 100.72 153.66 99.90 154.87 C 96.23 155.59 92.07 154.37 88.80 156.75 C 84.94 158.98 84.09 163.61 83.39 167.62 C 83.47 170.00 79.77 170.10 79.19 167.98 C 78.84 162.10 81.48 156.25 86.25 152.75 C 83.05 152.17 79.98 151.13 76.86 150.23 C 74.63 149.44 73.31 152.00 71.75 153.11 C 73.85 158.88 70.82 166.06 64.58 167.43 C 59.65 168.80 55.42 165.42 52.16 162.18 C 53.67 167.02 55.79 171.87 59.62 175.33 C 67.07 182.37 78.02 185.04 87.98 182.98 C 94.65 181.94 101.36 179.07 105.43 173.46 C 110.84 166.17 112.75 156.85 112.70 147.92 C 112.60 144.76 111.39 140.79 107.89 140.02 C 100.16 138.09 92.35 136.46 84.62 134.52 C 81.50 133.80 77.20 133.03 75.18 136.24 M 46.27 139.24 C 43.25 140.77 42.63 144.93 44.46 147.62 C 46.65 150.71 49.67 153.10 52.27 155.83 C 54.89 158.25 57.18 161.07 60.15 163.07 C 64.78 165.18 70.34 159.07 67.09 154.79 C 64.58 153.78 61.57 153.53 59.71 151.33 C 56.66 147.92 54.67 143.74 51.82 140.18 C 50.61 138.42 48.03 138.30 46.27 139.24 Z" />
<path fill="#fdfdfd" opacity="1.00" d=" M 141.27 106.33 C 149.25 94.51 170.05 95.24 176.60 108.19 C 173.54 110.69 170.04 112.54 166.75 114.71 C 164.35 112.31 161.77 109.27 157.99 109.63 C 154.10 109.34 150.64 112.98 151.29 116.86 C 151.63 120.15 155.10 121.51 157.82 122.42 C 163.72 124.25 170.10 125.85 174.60 130.37 C 180.08 135.92 180.39 145.13 176.72 151.74 C 173.06 158.37 165.45 161.98 158.04 161.99 C 149.91 162.46 142.22 158.51 136.66 152.78 C 138.69 149.22 142.07 146.76 144.87 143.84 C 147.96 146.90 151.46 150.18 156.06 150.39 C 159.74 150.81 164.06 149.31 165.43 145.58 C 166.67 142.41 165.58 138.15 162.21 136.82 C 155.49 133.99 147.45 133.30 142.21 127.71 C 136.69 122.04 136.84 112.60 141.27 106.33 Z" />
<path fill="#fdfdfd" opacity="1.00" d=" M 245.53 102.63 C 250.08 99.40 255.83 98.71 261.26 98.79 C 261.42 102.47 261.43 106.16 261.28 109.84 C 258.10 110.35 254.53 110.71 252.24 113.26 C 249.16 116.30 249.50 121.00 249.66 124.97 C 253.03 122.72 256.92 121.20 261.04 121.47 C 261.17 125.18 261.19 128.90 260.98 132.62 C 256.13 133.18 250.60 135.63 249.80 141.03 C 249.15 147.63 250.10 154.30 249.27 160.90 C 245.25 160.97 241.23 161.04 237.22 160.78 C 236.88 147.16 237.11 133.53 237.14 119.91 C 237.02 113.26 239.99 106.46 245.53 102.63 Z" />
<path fill="#fdfdfd" opacity="1.00" d=" M 350.03 104.17 C 354.00 104.00 357.98 103.99 361.96 104.18 C 362.31 108.39 361.32 113.23 364.21 116.77 C 366.41 119.82 370.26 120.62 373.65 121.59 C 373.73 125.28 373.72 128.97 373.62 132.66 C 369.45 133.08 365.62 131.21 362.18 129.09 C 362.48 134.60 360.85 140.88 364.25 145.72 C 366.39 148.90 370.37 149.52 373.88 150.02 C 374.07 153.65 374.06 157.28 373.84 160.90 C 366.24 161.62 358.06 158.81 353.47 152.50 C 350.54 148.66 349.81 143.70 349.89 139.00 C 349.89 127.39 349.55 115.77 350.03 104.17 Z" />
<path fill="#fdfdfd" opacity="1.00" d=" M 201.40 117.67 C 206.40 116.62 211.75 116.77 216.54 118.68 C 225.60 122.36 231.91 132.23 230.87 142.05 C 229.91 149.99 224.22 157.00 216.93 160.09 C 204.83 165.59 188.47 159.07 184.79 145.97 C 180.69 134.02 189.15 120.10 201.40 117.67 M 204.41 128.59 C 201.38 129.37 198.68 131.45 197.30 134.27 C 194.11 140.11 197.20 148.41 203.75 150.19 C 210.15 152.49 218.00 147.95 218.36 140.95 C 219.72 133.31 211.85 126.25 204.41 128.59 Z" />
<path fill="#fdfdfd" opacity="1.00" d=" M 285.19 117.22 C 297.44 115.27 310.44 124.45 311.70 137.00 C 312.74 144.84 308.99 152.94 302.55 157.47 C 294.63 163.31 283.11 163.52 274.96 158.00 C 267.73 153.42 263.47 144.44 265.15 135.95 C 266.67 126.12 275.39 118.28 285.19 117.22 M 285.45 128.56 C 277.22 130.30 274.41 141.92 280.33 147.60 C 286.11 153.60 298.04 150.54 299.28 141.98 C 301.43 134.04 293.31 126.17 285.45 128.56 Z" />
<path fill="#fdfdfd" opacity="1.00" d=" M 330.79 122.07 C 333.67 119.17 337.51 117.03 341.71 117.26 C 343.71 121.09 342.24 125.99 342.48 130.23 C 337.73 130.69 332.32 132.86 331.31 138.10 C 330.14 145.59 331.38 153.23 330.70 160.77 C 326.71 161.05 322.71 160.97 318.72 160.88 C 318.16 150.93 318.66 140.93 318.50 130.96 C 318.61 126.67 318.11 122.35 318.83 118.09 C 322.71 118.07 326.60 117.98 330.47 118.26 C 330.55 119.21 330.71 121.11 330.79 122.07 Z" />
<path fill="#fdfdfd" opacity="1.00" d=" M 385.33 146.39 C 390.53 143.73 397.54 148.14 397.00 154.06 C 396.81 160.20 388.77 163.70 383.97 160.01 C 379.05 156.87 379.94 148.53 385.33 146.39 Z" />
</g>
</svg>
